{
    "asset" : {
        "generator" : "Khronos glTF Blender I/O v1.5.17",
        "version" : "2.0"
    },
    "scene" : 0,
    "scenes" : [
        {
            "name" : "Scene",
            "nodes" : [
                0
            ]
        }
    ],
    "nodes" : [
        {
            "mesh" : 0,
            "name" : "Esfera",
            "rotation" : [
                0,
                0,
                -0.03058851882815361,
                0.9995320439338684
            ],
            "scale" : [
                32.16516876220703,
                32.00444412231445,
                42.3182373046875
            ],
            "translation" : [
                -176.49627685546875,
                2.8041181564331055,
                -18.677963256835938
            ]
        }
    ],
    "materials" : [
        {
            "alphaMode" : "BLEND",
            "doubleSided" : true,
            "emissiveFactor" : [
                1,
                1,
                1
            ],
            "emissiveTexture" : {
                "index" : 0
            },
            "name" : "Material.010",
            "pbrMetallicRoughness" : {
                "baseColorFactor" : [
                    0.5597243309020996,
                    0.8000000715255737,
                    0.8000000715255737,
                    1
                ],
                "metallicFactor" : 0.2291666716337204,
                "roughnessFactor" : 0.3645833134651184
            }
        }
    ],
    "meshes" : [
        {
            "name" : "Esfera.001",
            "primitives" : [
                {
                    "attributes" : {
                        "POSITION" : 0,
                        "NORMAL" : 1,
                        "TEXCOORD_0" : 2
                    },
                    "indices" : 3,
                    "material" : 0
                }
            ]
        }
    ],
    "textures" : [
        {
            "sampler" : 0,
            "source" : 0
        }
    ],
    "images" : [
        {
            "bufferView" : 4,
            "mimeType" : "image/jpeg",
            "name" : "LIQUIDO"
        }
    ],
    "accessors" : [
        {
            "bufferView" : 0,
            "componentType" : 5126,
            "count" : 359,
            "max" : [
                0.806423544883728,
                1.454612135887146,
                0.9592671394348145
            ],
            "min" : [
                -1.6435898542404175,
                -0.37480801343917847,
                -1.4615826606750488
            ],
            "type" : "VEC3"
        },
        {
            "bufferView" : 1,
            "componentType" : 5126,
            "count" : 359,
            "type" : "VEC3"
        },
        {
            "bufferView" : 2,
            "componentType" : 5126,
            "count" : 359,
            "type" : "VEC2"
        },
        {
            "bufferView" : 3,
            "componentType" : 5123,
            "count" : 1632,
            "type" : "SCALAR"
        }
    ],
    "bufferViews" : [
        {
            "buffer" : 0,
            "byteLength" : 4308,
            "byteOffset" : 0
        },
        {
            "buffer" : 0,
            "byteLength" : 4308,
            "byteOffset" : 4308
        },
        {
            "buffer" : 0,
            "byteLength" : 2872,
            "byteOffset" : 8616
        },
        {
            "buffer" : 0,
            "byteLength" : 3264,
            "byteOffset" : 11488
        },
        {
            "buffer" : 0,
            "byteLength" : 32171,
            "byteOffset" : 14752
        }
    ],
    "samplers" : [
        {
            "magFilter" : 9729,
            "minFilter" : 9987
        }
    ],
    "buffers" : [
        {
            "byteLength" : 46924,
            "uri" : "data:application/octet-stream;base64,"
        }
    ]
}
