{
    "asset" : {
        "generator" : "Khronos glTF Blender I/O v1.5.17",
        "version" : "2.0"
    },
    "extensionsUsed" : [
        "KHR_lights_punctual",
        "KHR_materials_transmission"
    ],
    "extensionsRequired" : [
        "KHR_lights_punctual"
    ],
    "extensions" : {
        "KHR_lights_punctual" : {
            "lights" : [
                {
                    "color" : [
                        1,
                        1,
                        1
                    ],
                    "intensity" : 1000,
                    "type" : "point",
                    "name" : "Light"
                }
            ]
        }
    },
    "scene" : 0,
    "scenes" : [
        {
            "name" : "Scene",
            "nodes" : [
                1,
                3,
                4,
                5,
                6,
                7,
                8,
                9,
                10,
                11,
                12,
                13,
                14
            ]
        }
    ],
    "nodes" : [
        {
            "extensions" : {
                "KHR_lights_punctual" : {
                    "light" : 0
                }
            },
            "name" : "Light_Orientation",
            "rotation" : [
                -0.7071067690849304,
                0,
                0,
                0.7071067690849304
            ]
        },
        {
            "children" : [
                0
            ],
            "name" : "Light",
            "rotation" : [
                0.16907575726509094,
                0.7558803558349609,
                -0.27217137813568115,
                0.570947527885437
            ],
            "translation" : [
                3.91353440284729,
                5.903861999511719,
                -1.0054539442062378
            ]
        },
        {
            "camera" : 0,
            "name" : "Camera_Orientation",
            "rotation" : [
                -0.7071067690849304,
                0,
                0,
                0.7071067690849304
            ]
        },
        {
            "children" : [
                2
            ],
            "name" : "Camera",
            "rotation" : [
                0.483536034822464,
                0.33687159419059753,
                -0.20870360732078552,
                0.7804827094078064
            ],
            "translation" : [
                7.358891487121582,
                4.958309173583984,
                6.925790786743164
            ]
        },
        {
            "mesh" : 0,
            "name" : "Rosca",
            "rotation" : [
                -0.7056998014450073,
                0,
                0,
                0.7085109949111938
            ],
            "scale" : [
                3.1930124759674072,
                27.743587493896484,
                2.435439109802246
            ],
            "translation" : [
                0,
                1.5159896612167358,
                0
            ]
        },
        {
            "mesh" : 1,
            "name" : "tela.001",
            "rotation" : [
                0.7071068286895752,
                0,
                0,
                0.7071067094802856
            ]
        },
        {
            "mesh" : 2,
            "name" : "huevito.002",
            "rotation" : [
                0.7071068286895752,
                0,
                0,
                0.7071067094802856
            ]
        },
        {
            "mesh" : 3,
            "name" : "amarillo.003",
            "rotation" : [
                0.7071068286895752,
                0,
                0,
                0.7071067094802856
            ]
        },
        {
            "mesh" : 4,
            "name" : "proyectil_2.009",
            "rotation" : [
                0.7071068286895752,
                0,
                0,
                0.7071067094802856
            ]
        },
        {
            "mesh" : 5,
            "name" : "lengua.010",
            "rotation" : [
                0.7071068286895752,
                0,
                0,
                0.7071067094802856
            ]
        },
        {
            "mesh" : 6,
            "name" : "esfera_fucsia.011",
            "rotation" : [
                0.7071068286895752,
                0,
                0,
                0.7071067094802856
            ]
        },
        {
            "mesh" : 7,
            "name" : "Planos.013",
            "rotation" : [
                0.7071068286895752,
                0,
                0,
                0.7071067094802856
            ]
        },
        {
            "mesh" : 8,
            "name" : "Torus.014",
            "rotation" : [
                0.7071068286895752,
                0,
                0,
                0.7071067094802856
            ]
        },
        {
            "mesh" : 9,
            "name" : "contenedor2.015",
            "rotation" : [
                0.7071068286895752,
                0,
                0,
                0.7071067094802856
            ],
            "translation" : [
                -11.88923168182373,
                0,
                0
            ]
        },
        {
            "mesh" : 10,
            "name" : "conector.016",
            "rotation" : [
                0.7071068286895752,
                0,
                0,
                0.7071067094802856
            ]
        }
    ],
    "cameras" : [
        {
            "name" : "Camera",
            "perspective" : {
                "aspectRatio" : 1.7777777777777777,
                "yfov" : 0.39959652046304894,
                "zfar" : 100,
                "znear" : 0.10000000149011612
            },
            "type" : "perspective"
        }
    ],
    "materials" : [
        {
            "alphaMode" : "BLEND",
            "doubleSided" : true,
            "emissiveFactor" : [
                1,
                1,
                1
            ],
            "emissiveTexture" : {
                "index" : 0
            },
            "extensions" : {
                "KHR_materials_transmission" : {
                    "transmissionFactor" : 1
                }
            },
            "name" : "Material.001",
            "pbrMetallicRoughness" : {
                "baseColorFactor" : [
                    0.800000011920929,
                    0.800000011920929,
                    0.800000011920929,
                    1
                ],
                "metallicFactor" : 0.21519021689891815,
                "roughnessFactor" : 0.5443037748336792
            }
        },
        {
            "doubleSided" : true,
            "extensions" : {
                "KHR_materials_transmission" : {
                    "transmissionFactor" : 1
                }
            },
            "name" : "None.001",
            "pbrMetallicRoughness" : {
                "baseColorFactor" : [
                    0.800000011920929,
                    0.800000011920929,
                    0.800000011920929,
                    1
                ],
                "metallicFactor" : 0.3291139304637909,
                "roughnessFactor" : 0.5
            }
        }
    ],
    "meshes" : [
        {
            "name" : "Rosca",
            "primitives" : [
                {
                    "attributes" : {
                        "POSITION" : 0,
                        "NORMAL" : 1,
                        "TEXCOORD_0" : 2
                    },
                    "indices" : 3,
                    "material" : 0
                }
            ]
        },
        {
            "name" : "tela.001",
            "primitives" : [
                {
                    "attributes" : {
                        "POSITION" : 4,
                        "NORMAL" : 5
                    },
                    "indices" : 6,
                    "material" : 1
                }
            ]
        },
        {
            "name" : "huevito.002",
            "primitives" : [
                {
                    "attributes" : {
                        "POSITION" : 7,
                        "NORMAL" : 8
                    },
                    "indices" : 6,
                    "material" : 1
                }
            ]
        },
        {
            "name" : "amarillo.003",
            "primitives" : [
                {
                    "attributes" : {
                        "POSITION" : 9,
                        "NORMAL" : 10
                    },
                    "indices" : 6,
                    "material" : 1
                }
            ]
        },
        {
            "name" : "proyectil_2.009",
            "primitives" : [
                {
                    "attributes" : {
                        "POSITION" : 11,
                        "NORMAL" : 12
                    },
                    "indices" : 6,
                    "material" : 1
                }
            ]
        },
        {
            "name" : "lengua.010",
            "primitives" : [
                {
                    "attributes" : {
                        "POSITION" : 13,
                        "NORMAL" : 14
                    },
                    "indices" : 6,
                    "material" : 1
                }
            ]
        },
        {
            "name" : "esfera_fucsia.011",
            "primitives" : [
                {
                    "attributes" : {
                        "POSITION" : 15,
                        "NORMAL" : 16
                    },
                    "indices" : 6,
                    "material" : 1
                }
            ]
        },
        {
            "name" : "Planos.013",
            "primitives" : [
                {
                    "attributes" : {
                        "POSITION" : 17,
                        "NORMAL" : 18
                    },
                    "indices" : 19,
                    "material" : 1
                }
            ]
        },
        {
            "name" : "Torus.014",
            "primitives" : [
                {
                    "attributes" : {
                        "POSITION" : 20,
                        "NORMAL" : 21
                    },
                    "indices" : 22,
                    "material" : 1
                }
            ]
        },
        {
            "name" : "contenedor2.015",
            "primitives" : [
                {
                    "attributes" : {
                        "POSITION" : 23,
                        "NORMAL" : 24
                    },
                    "indices" : 6,
                    "material" : 1
                }
            ]
        },
        {
            "name" : "conector.016",
            "primitives" : [
                {
                    "attributes" : {
                        "POSITION" : 25,
                        "NORMAL" : 26
                    },
                    "indices" : 6,
                    "material" : 1
                }
            ]
        }
    ],
    "textures" : [
        {
            "sampler" : 0,
            "source" : 0
        }
    ],
    "images" : [
        {
            "bufferView" : 4,
            "mimeType" : "image/jpeg",
            "name" : "OMAIGAYES"
        }
    ],
    "accessors" : [
        {
            "bufferView" : 0,
            "componentType" : 5126,
            "count" : 663,
            "max" : [
                2.2818806171417236,
                0.2502612769603729,
                5.169763088226318
            ],
            "min" : [
                -2.8292205333709717,
                -0.26626265048980713,
                -0.91885906457901
            ],
            "type" : "VEC3"
        },
        {
            "bufferView" : 1,
            "componentType" : 5126,
            "count" : 663,
            "type" : "VEC3"
        },
        {
            "bufferView" : 2,
            "componentType" : 5126,
            "count" : 663,
            "type" : "VEC2"
        },
        {
            "bufferView" : 3,
            "componentType" : 5123,
            "count" : 3108,
            "type" : "SCALAR"
        },
        {
            "bufferView" : 5,
            "componentType" : 5126,
            "count" : 2562,
            "max" : [
                5.989264011383057,
                10.408709526062012,
                3.3650360107421875
            ],
            "min" : [
                -8.489648818969727,
                -3.518872022628784,
                -26.374290466308594
            ],
            "type" : "VEC3"
        },
        {
            "bufferView" : 6,
            "componentType" : 5126,
            "count" : 2562,
            "type" : "VEC3"
        },
        {
            "bufferView" : 7,
            "componentType" : 5123,
            "count" : 15360,
            "type" : "SCALAR"
        },
        {
            "bufferView" : 8,
            "componentType" : 5126,
            "count" : 2562,
            "max" : [
                2.4755399227142334,
                -3.844322919845581,
                -14.746009826660156
            ],
            "min" : [
                -2.659087896347046,
                -9.08183479309082,
                -22.43655014038086
            ],
            "type" : "VEC3"
        },
        {
            "bufferView" : 9,
            "componentType" : 5126,
            "count" : 2562,
            "type" : "VEC3"
        },
        {
            "bufferView" : 10,
            "componentType" : 5126,
            "count" : 2562,
            "max" : [
                2.979135036468506,
                3.060753107070923,
                4.468817234039307
            ],
            "min" : [
                -2.9768269062042236,
                -3.2132999897003174,
                -11.076020240783691
            ],
            "type" : "VEC3"
        },
        {
            "bufferView" : 11,
            "componentType" : 5126,
            "count" : 2562,
            "type" : "VEC3"
        },
        {
            "bufferView" : 12,
            "componentType" : 5126,
            "count" : 2562,
            "max" : [
                5.612110137939453,
                19.111440658569336,
                -13.450909614562988
            ],
            "min" : [
                4.217196941375732,
                14.7121000289917,
                -14.80344009399414
            ],
            "type" : "VEC3"
        },
        {
            "bufferView" : 13,
            "componentType" : 5126,
            "count" : 2562,
            "type" : "VEC3"
        },
        {
            "bufferView" : 14,
            "componentType" : 5126,
            "count" : 2562,
            "max" : [
                18.46830940246582,
                6.042416095733643,
                -1.0520700216293335
            ],
            "min" : [
                3.395505905151367,
                -1.6034810543060303,
                -15.872400283813477
            ],
            "type" : "VEC3"
        },
        {
            "bufferView" : 15,
            "componentType" : 5126,
            "count" : 2562,
            "type" : "VEC3"
        },
        {
            "bufferView" : 16,
            "componentType" : 5126,
            "count" : 2562,
            "max" : [
                14.078359603881836,
                0.7762393951416016,
                -0.6457461714744568
            ],
            "min" : [
                2.3102269172668457,
                -10.136429786682129,
                -13.186599731445312
            ],
            "type" : "VEC3"
        },
        {
            "bufferView" : 17,
            "componentType" : 5126,
            "count" : 2562,
            "type" : "VEC3"
        },
        {
            "bufferView" : 18,
            "componentType" : 5126,
            "count" : 100,
            "max" : [
                -2.901431083679199,
                -1.799456000328064,
                -5.1681671142578125
            ],
            "min" : [
                -8.849781036376953,
                -13.240269660949707,
                -27.876909255981445
            ],
            "type" : "VEC3"
        },
        {
            "bufferView" : 19,
            "componentType" : 5126,
            "count" : 100,
            "type" : "VEC3"
        },
        {
            "bufferView" : 20,
            "componentType" : 5123,
            "count" : 486,
            "type" : "SCALAR"
        },
        {
            "bufferView" : 21,
            "componentType" : 5126,
            "count" : 3888,
            "max" : [
                8.089734077453613,
                -19.300369262695312,
                -3.8362069129943848
            ],
            "min" : [
                -8.08973503112793,
                -22.585830688476562,
                -6.711672782897949
            ],
            "type" : "VEC3"
        },
        {
            "bufferView" : 22,
            "componentType" : 5126,
            "count" : 3888,
            "type" : "VEC3"
        },
        {
            "bufferView" : 23,
            "componentType" : 5123,
            "count" : 23328,
            "type" : "SCALAR"
        },
        {
            "bufferView" : 24,
            "componentType" : 5126,
            "count" : 2562,
            "max" : [
                13.284919738769531,
                25.381940841674805,
                -9.340542793273926
            ],
            "min" : [
                3.5428240299224854,
                11.57781982421875,
                -20.26671028137207
            ],
            "type" : "VEC3"
        },
        {
            "bufferView" : 25,
            "componentType" : 5126,
            "count" : 2562,
            "type" : "VEC3"
        },
        {
            "bufferView" : 26,
            "componentType" : 5126,
            "count" : 2562,
            "max" : [
                29.19002914428711,
                25.297950744628906,
                -10.577850341796875
            ],
            "min" : [
                5.71287202835083,
                -18.80512046813965,
                -16.32761001586914
            ],
            "type" : "VEC3"
        },
        {
            "bufferView" : 27,
            "componentType" : 5126,
            "count" : 2562,
            "type" : "VEC3"
        }
    ],
    "bufferViews" : [
        {
            "buffer" : 0,
            "byteLength" : 7956,
            "byteOffset" : 0
        },
        {
            "buffer" : 0,
            "byteLength" : 7956,
            "byteOffset" : 7956
        },
        {
            "buffer" : 0,
            "byteLength" : 5304,
            "byteOffset" : 15912
        },
        {
            "buffer" : 0,
            "byteLength" : 6216,
            "byteOffset" : 21216
        },
        {
            "buffer" : 0,
            "byteLength" : 39558,
            "byteOffset" : 27432
        },
        {
            "buffer" : 0,
            "byteLength" : 30744,
            "byteOffset" : 66992
        },
        {
            "buffer" : 0,
            "byteLength" : 30744,
            "byteOffset" : 97736
        },
        {
            "buffer" : 0,
            "byteLength" : 30720,
            "byteOffset" : 128480
        },
        {
            "buffer" : 0,
            "byteLength" : 30744,
            "byteOffset" : 159200
        },
        {
            "buffer" : 0,
            "byteLength" : 30744,
            "byteOffset" : 189944
        },
        {
            "buffer" : 0,
            "byteLength" : 30744,
            "byteOffset" : 220688
        },
        {
            "buffer" : 0,
            "byteLength" : 30744,
            "byteOffset" : 251432
        },
        {
            "buffer" : 0,
            "byteLength" : 30744,
            "byteOffset" : 282176
        },
        {
            "buffer" : 0,
            "byteLength" : 30744,
            "byteOffset" : 312920
        },
        {
            "buffer" : 0,
            "byteLength" : 30744,
            "byteOffset" : 343664
        },
        {
            "buffer" : 0,
            "byteLength" : 30744,
            "byteOffset" : 374408
        },
        {
            "buffer" : 0,
            "byteLength" : 30744,
            "byteOffset" : 405152
        },
        {
            "buffer" : 0,
            "byteLength" : 30744,
            "byteOffset" : 435896
        },
        {
            "buffer" : 0,
            "byteLength" : 1200,
            "byteOffset" : 466640
        },
        {
            "buffer" : 0,
            "byteLength" : 1200,
            "byteOffset" : 467840
        },
        {
            "buffer" : 0,
            "byteLength" : 972,
            "byteOffset" : 469040
        },
        {
            "buffer" : 0,
            "byteLength" : 46656,
            "byteOffset" : 470012
        },
        {
            "buffer" : 0,
            "byteLength" : 46656,
            "byteOffset" : 516668
        },
        {
            "buffer" : 0,
            "byteLength" : 46656,
            "byteOffset" : 563324
        },
        {
            "buffer" : 0,
            "byteLength" : 30744,
            "byteOffset" : 609980
        },
        {
            "buffer" : 0,
            "byteLength" : 30744,
            "byteOffset" : 640724
        },
        {
            "buffer" : 0,
            "byteLength" : 30744,
            "byteOffset" : 671468
        },
        {
            "buffer" : 0,
            "byteLength" : 30744,
            "byteOffset" : 702212
        }
    ],
    "samplers" : [
        {
            "magFilter" : 9729,
            "minFilter" : 9987
        }
    ],
    "buffers" : [
        {
            "byteLength" : 732956,
            "uri" : "data:application/octet-stream;base64,"
        }
    ]
}
