{
    "asset" : {
        "generator" : "Khronos glTF Blender I/O v1.5.17",
        "version" : "2.0"
    },
    "scene" : 0,
    "scenes" : [
        {
            "name" : "Scene",
            "nodes" : [
                0,
                1,
                2,
                3,
                4
            ]
        }
    ],
    "nodes" : [
        {
            "mesh" : 0,
            "name" : "Rosca.001",
            "rotation" : [
                0.7276024222373962,
                0,
                0,
                0.6859991550445557
            ],
            "scale" : [
                17.66549301147461,
                7.109071731567383,
                16.343420028686523
            ],
            "translation" : [
                6.9901909828186035,
                5.493459701538086,
                -11.028042793273926
            ]
        },
        {
            "mesh" : 1,
            "name" : "Rosca.002",
            "rotation" : [
                0.7276024222373962,
                0,
                0,
                0.6859991550445557
            ],
            "scale" : [
                10.647554397583008,
                7.344620227813721,
                8.074956893920898
            ],
            "translation" : [
                6.358966827392578,
                1.4805622100830078,
                -10.690581321716309
            ]
        },
        {
            "mesh" : 2,
            "name" : "Rosca.003",
            "rotation" : [
                0.6903319358825684,
                0,
                0,
                0.7234928011894226
            ],
            "scale" : [
                15.367538452148438,
                -3.0179927349090576,
                16.567359924316406
            ],
            "translation" : [
                8.147542953491211,
                7.084216117858887,
                -24.30745506286621
            ]
        },
        {
            "mesh" : 3,
            "name" : "Rosca.004",
            "rotation" : [
                0.6930260062217712,
                0,
                0,
                0.7209125757217407
            ],
            "scale" : [
                15.367538452148438,
                -3.0172863006591797,
                16.57013702392578
            ],
            "translation" : [
                5.933004379272461,
                6.185382843017578,
                -32.71009826660156
            ]
        },
        {
            "mesh" : 4,
            "name" : "Rosca.005",
            "rotation" : [
                0.6930260062217712,
                0,
                0,
                0.7209125757217407
            ],
            "scale" : [
                15.367538452148438,
                -3.0172863006591797,
                16.57013702392578
            ],
            "translation" : [
                6.9496965408325195,
                8.23386287689209,
                -41.87709045410156
            ]
        }
    ],
    "materials" : [
        {
            "alphaMode" : "BLEND",
            "doubleSided" : true,
            "emissiveFactor" : [
                1,
                1,
                1
            ],
            "emissiveTexture" : {
                "index" : 0
            },
            "name" : "Material.002",
            "pbrMetallicRoughness" : {
                "baseColorFactor" : [
                    0,
                    0,
                    0,
                    1
                ],
                "metallicFactor" : 0.2151898592710495,
                "roughnessFactor" : 0.550632894039154
            }
        },
        {
            "alphaMode" : "BLEND",
            "doubleSided" : true,
            "emissiveFactor" : [
                1,
                1,
                1
            ],
            "emissiveTexture" : {
                "index" : 1
            },
            "name" : "Material.005",
            "pbrMetallicRoughness" : {
                "baseColorFactor" : [
                    0,
                    0,
                    0,
                    1
                ],
                "metallicFactor" : 0.3291139006614685,
                "roughnessFactor" : 0.5
            }
        },
        {
            "alphaMode" : "BLEND",
            "doubleSided" : true,
            "emissiveFactor" : [
                1,
                1,
                1
            ],
            "emissiveTexture" : {
                "index" : 2
            },
            "name" : "Material.009",
            "pbrMetallicRoughness" : {
                "baseColorFactor" : [
                    0,
                    0,
                    0,
                    1
                ],
                "metallicFactor" : 0.2151898592710495,
                "roughnessFactor" : 0.550632894039154
            }
        }
    ],
    "meshes" : [
        {
            "name" : "Rosca.001",
            "primitives" : [
                {
                    "attributes" : {
                        "POSITION" : 0,
                        "NORMAL" : 1,
                        "TEXCOORD_0" : 2
                    },
                    "indices" : 3,
                    "material" : 0
                }
            ]
        },
        {
            "name" : "Rosca.002",
            "primitives" : [
                {
                    "attributes" : {
                        "POSITION" : 4,
                        "NORMAL" : 5,
                        "TEXCOORD_0" : 6
                    },
                    "indices" : 7,
                    "material" : 1
                }
            ]
        },
        {
            "name" : "Rosca.008",
            "primitives" : [
                {
                    "attributes" : {
                        "POSITION" : 8,
                        "NORMAL" : 9,
                        "TEXCOORD_0" : 10
                    },
                    "indices" : 7,
                    "material" : 2
                }
            ]
        },
        {
            "name" : "Rosca.009",
            "primitives" : [
                {
                    "attributes" : {
                        "POSITION" : 11,
                        "NORMAL" : 12,
                        "TEXCOORD_0" : 13
                    },
                    "indices" : 7,
                    "material" : 2
                }
            ]
        },
        {
            "name" : "Rosca.010",
            "primitives" : [
                {
                    "attributes" : {
                        "POSITION" : 14,
                        "NORMAL" : 15,
                        "TEXCOORD_0" : 16
                    },
                    "indices" : 7,
                    "material" : 2
                }
            ]
        }
    ],
    "textures" : [
        {
            "sampler" : 0,
            "source" : 0
        },
        {
            "sampler" : 0,
            "source" : 0
        },
        {
            "sampler" : 0,
            "source" : 0
        }
    ],
    "images" : [
        {
            "bufferView" : 4,
            "mimeType" : "image/jpeg",
            "name" : "LIQUIDO"
        }
    ],
    "accessors" : [
        {
            "bufferView" : 0,
            "componentType" : 5126,
            "count" : 661,
            "max" : [
                1.4909170866012573,
                0.811362624168396,
                1.2982704639434814
            ],
            "min" : [
                -1.4345343112945557,
                -1.4721784591674805,
                -1.6725430488586426
            ],
            "type" : "VEC3"
        },
        {
            "bufferView" : 1,
            "componentType" : 5126,
            "count" : 661,
            "type" : "VEC3"
        },
        {
            "bufferView" : 2,
            "componentType" : 5126,
            "count" : 661,
            "type" : "VEC2"
        },
        {
            "bufferView" : 3,
            "componentType" : 5123,
            "count" : 3492,
            "type" : "SCALAR"
        },
        {
            "bufferView" : 5,
            "componentType" : 5126,
            "count" : 637,
            "max" : [
                1.25,
                0.25,
                1.25
            ],
            "min" : [
                -1.25,
                -0.25,
                -1.25
            ],
            "type" : "VEC3"
        },
        {
            "bufferView" : 6,
            "componentType" : 5126,
            "count" : 637,
            "type" : "VEC3"
        },
        {
            "bufferView" : 7,
            "componentType" : 5126,
            "count" : 637,
            "type" : "VEC2"
        },
        {
            "bufferView" : 8,
            "componentType" : 5123,
            "count" : 3456,
            "type" : "SCALAR"
        },
        {
            "bufferView" : 9,
            "componentType" : 5126,
            "count" : 637,
            "max" : [
                1.4909170866012573,
                0.811362624168396,
                1.3213107585906982
            ],
            "min" : [
                -1.4345343112945557,
                -1.4721784591674805,
                -1.6725430488586426
            ],
            "type" : "VEC3"
        },
        {
            "bufferView" : 10,
            "componentType" : 5126,
            "count" : 637,
            "type" : "VEC3"
        },
        {
            "bufferView" : 11,
            "componentType" : 5126,
            "count" : 637,
            "type" : "VEC2"
        },
        {
            "bufferView" : 12,
            "componentType" : 5126,
            "count" : 637,
            "max" : [
                1.4909170866012573,
                0.811362624168396,
                1.3213107585906982
            ],
            "min" : [
                -1.4345343112945557,
                -1.4721784591674805,
                -1.6725430488586426
            ],
            "type" : "VEC3"
        },
        {
            "bufferView" : 13,
            "componentType" : 5126,
            "count" : 637,
            "type" : "VEC3"
        },
        {
            "bufferView" : 14,
            "componentType" : 5126,
            "count" : 637,
            "type" : "VEC2"
        },
        {
            "bufferView" : 15,
            "componentType" : 5126,
            "count" : 637,
            "max" : [
                1.4909170866012573,
                0.811362624168396,
                1.3213107585906982
            ],
            "min" : [
                -1.4345343112945557,
                -1.4721784591674805,
                -1.6725430488586426
            ],
            "type" : "VEC3"
        },
        {
            "bufferView" : 16,
            "componentType" : 5126,
            "count" : 637,
            "type" : "VEC3"
        },
        {
            "bufferView" : 17,
            "componentType" : 5126,
            "count" : 637,
            "type" : "VEC2"
        }
    ],
    "bufferViews" : [
        {
            "buffer" : 0,
            "byteLength" : 7932,
            "byteOffset" : 0
        },
        {
            "buffer" : 0,
            "byteLength" : 7932,
            "byteOffset" : 7932
        },
        {
            "buffer" : 0,
            "byteLength" : 5288,
            "byteOffset" : 15864
        },
        {
            "buffer" : 0,
            "byteLength" : 6984,
            "byteOffset" : 21152
        },
        {
            "buffer" : 0,
            "byteLength" : 32171,
            "byteOffset" : 28136
        },
        {
            "buffer" : 0,
            "byteLength" : 7644,
            "byteOffset" : 60308
        },
        {
            "buffer" : 0,
            "byteLength" : 7644,
            "byteOffset" : 67952
        },
        {
            "buffer" : 0,
            "byteLength" : 5096,
            "byteOffset" : 75596
        },
        {
            "buffer" : 0,
            "byteLength" : 6912,
            "byteOffset" : 80692
        },
        {
            "buffer" : 0,
            "byteLength" : 7644,
            "byteOffset" : 87604
        },
        {
            "buffer" : 0,
            "byteLength" : 7644,
            "byteOffset" : 95248
        },
        {
            "buffer" : 0,
            "byteLength" : 5096,
            "byteOffset" : 102892
        },
        {
            "buffer" : 0,
            "byteLength" : 7644,
            "byteOffset" : 107988
        },
        {
            "buffer" : 0,
            "byteLength" : 7644,
            "byteOffset" : 115632
        },
        {
            "buffer" : 0,
            "byteLength" : 5096,
            "byteOffset" : 123276
        },
        {
            "buffer" : 0,
            "byteLength" : 7644,
            "byteOffset" : 128372
        },
        {
            "buffer" : 0,
            "byteLength" : 7644,
            "byteOffset" : 136016
        },
        {
            "buffer" : 0,
            "byteLength" : 5096,
            "byteOffset" : 143660
        }
    ],
    "samplers" : [
        {
            "magFilter" : 9729,
            "minFilter" : 9987
        }
    ],
    "buffers" : [
        {
            "byteLength" : 148756,
            "uri" : "data:application/octet-stream;base64,"
        }
    ]
}
