{
    "asset" : {
        "generator" : "Khronos glTF Blender I/O v1.5.17",
        "version" : "2.0"
    },
    "scene" : 0,
    "scenes" : [
        {
            "name" : "Scene",
            "nodes" : [
                0
            ]
        }
    ],
    "nodes" : [
        {
            "mesh" : 0,
            "name" : "Rosca.008",
            "rotation" : [
                0.6930260062217712,
                0,
                0,
                0.7209125757217407
            ],
            "scale" : [
                15.367538452148438,
                -3.0172863006591797,
                16.57013702392578
            ],
            "translation" : [
                -31.66279411315918,
                6.185382843017578,
                -32.71009826660156
            ]
        }
    ],
    "materials" : [
        {
            "alphaMode" : "BLEND",
            "doubleSided" : true,
            "emissiveFactor" : [
                1,
                1,
                1
            ],
            "emissiveTexture" : {
                "index" : 0
            },
            "name" : "Material.012",
            "pbrMetallicRoughness" : {
                "baseColorFactor" : [
                    0,
                    0,
                    0,
                    1
                ],
                "metallicFactor" : 0.2151898592710495,
                "roughnessFactor" : 0.550632894039154
            }
        }
    ],
    "meshes" : [
        {
            "name" : "Rosca.009",
            "primitives" : [
                {
                    "attributes" : {
                        "POSITION" : 0,
                        "NORMAL" : 1,
                        "TANGENT" : 2,
                        "TEXCOORD_0" : 3
                    },
                    "indices" : 4,
                    "material" : 0
                }
            ]
        }
    ],
    "textures" : [
        {
            "sampler" : 0,
            "source" : 0
        }
    ],
    "images" : [
        {
            "bufferView" : 5,
            "mimeType" : "image/jpeg",
            "name" : "LIQUIDO"
        }
    ],
    "accessors" : [
        {
            "bufferView" : 0,
            "componentType" : 5126,
            "count" : 637,
            "max" : [
                1.4909170866012573,
                0.811362624168396,
                1.3213107585906982
            ],
            "min" : [
                -1.4345343112945557,
                -1.4721784591674805,
                -1.6725430488586426
            ],
            "type" : "VEC3"
        },
        {
            "bufferView" : 1,
            "componentType" : 5126,
            "count" : 637,
            "type" : "VEC3"
        },
        {
            "bufferView" : 2,
            "componentType" : 5126,
            "count" : 637,
            "type" : "VEC4"
        },
        {
            "bufferView" : 3,
            "componentType" : 5126,
            "count" : 637,
            "type" : "VEC2"
        },
        {
            "bufferView" : 4,
            "componentType" : 5123,
            "count" : 3456,
            "type" : "SCALAR"
        }
    ],
    "bufferViews" : [
        {
            "buffer" : 0,
            "byteLength" : 7644,
            "byteOffset" : 0
        },
        {
            "buffer" : 0,
            "byteLength" : 7644,
            "byteOffset" : 7644
        },
        {
            "buffer" : 0,
            "byteLength" : 10192,
            "byteOffset" : 15288
        },
        {
            "buffer" : 0,
            "byteLength" : 5096,
            "byteOffset" : 25480
        },
        {
            "buffer" : 0,
            "byteLength" : 6912,
            "byteOffset" : 30576
        },
        {
            "buffer" : 0,
            "byteLength" : 32171,
            "byteOffset" : 37488
        }
    ],
    "samplers" : [
        {
            "magFilter" : 9729,
            "minFilter" : 9987
        }
    ],
    "buffers" : [
        {
            "byteLength" : 69660,
            "uri" : "data:application/octet-stream;base64,"
        }
    ]
}
